<?xml version="1.0" standalone="no"?>
<!DOCTYPE svg PUBLIC "-//W3C//DTD SVG 20010904//EN"
 "http://www.w3.org/TR/2001/REC-SVG-20010904/DTD/svg10.dtd">
<svg version="1.0" xmlns="http://www.w3.org/2000/svg"
 width="900.000000pt" height="1783.000000pt" viewBox="0 0 900.000000 1783.000000"
 preserveAspectRatio="xMidYMid meet">

<g transform="translate(0.000000,1783.000000) scale(0.100000,-0.100000)"
fill="#000000" stroke="none">
<path d="M4710 17805 c-24 -60 7 -301 47 -364 13 -21 13 -30 -2 -89 -13 -54
-25 -75 -69 -123 -64 -68 -148 -227 -201 -379 -35 -100 -37 -114 -46 -285 -13
-272 -12 -271 -67 -396 -50 -114 -50 -114 -61 -269 -8 -120 -16 -172 -35 -228
-22 -65 -26 -99 -35 -305 l-10 -232 -81 -74 c-44 -40 -86 -83 -92 -94 -38 -71
-28 -153 36 -282 l43 -90 -11 -105 c-6 -58 -15 -111 -19 -117 -5 -8 -29 -13
-58 -13 -27 0 -49 -1 -49 -2 0 -2 -7 -41 -15 -87 -15 -88 -17 -90 -78 -160
-39 -43 -39 -44 -35 -110 4 -50 16 -93 53 -176 53 -121 73 -219 61 -298 -6
-42 -9 -46 -26 -37 -10 5 -40 10 -67 10 -51 -1 -85 -15 -218 -92 l-80 -47
-131 -9 c-73 -5 -137 -13 -143 -16 -6 -4 -11 -22 -11 -40 0 -19 -6 -38 -13
-44 -7 -7 -81 -25 -163 -42 -290 -61 -314 -68 -369 -109 -28 -21 -80 -53 -116
-71 -50 -26 -113 -64 -157 -95 -1 -1 0 -21 4 -44 6 -35 10 -41 32 -41 13 0 40
9 58 21 58 35 57 17 -3 -64 -39 -52 -64 -77 -78 -77 -43 0 -100 23 -128 52
l-30 29 -36 -35 c-21 -21 -60 -44 -95 -56 -44 -15 -76 -36 -128 -86 -92 -86
-208 -172 -335 -247 -75 -44 -104 -67 -112 -87 -19 -55 -123 -111 -274 -146
-42 -10 -83 -25 -91 -33 -17 -20 -40 -94 -62 -198 -14 -68 -22 -86 -43 -100
-14 -9 -50 -43 -80 -75 -30 -33 -57 -56 -61 -51 -4 4 -13 36 -20 71 -14 68
-28 86 -44 56 -6 -10 -34 -41 -63 -69 -41 -39 -66 -79 -119 -185 -99 -202
-162 -281 -241 -305 -19 -5 -23 -14 -23 -45 l0 -38 30 28 c16 15 50 33 76 40
l47 13 28 -34 c16 -19 29 -37 29 -40 0 -4 -17 -18 -39 -32 -42 -28 -51 -53
-51 -143 0 -60 -13 -74 -74 -74 -42 0 -77 -40 -69 -80 3 -18 -3 -32 -21 -49
-26 -24 -26 -25 -26 -200 0 -97 -5 -194 -10 -216 -11 -50 -43 -77 -84 -73 -28
3 -32 8 -44 53 -13 51 -11 307 4 368 6 25 5 27 -17 19 -21 -8 -30 -31 -76
-208 -28 -109 -58 -237 -67 -284 -52 -282 -46 -638 15 -893 16 -70 29 -142 27
-160 -3 -31 -5 -32 -55 -35 -62 -4 -59 -9 -68 148 -5 77 -12 123 -22 139 l-16
24 -15 -29 c-13 -23 -16 -58 -14 -161 2 -155 13 -190 71 -230 22 -15 43 -35
47 -43 4 -8 11 -116 14 -240 7 -215 8 -231 43 -369 21 -80 37 -167 37 -195 l0
-50 -39 38 c-32 32 -41 48 -46 90 -3 28 -17 96 -30 151 -13 55 -27 124 -31
154 l-7 54 -18 -22 c-11 -13 -24 -40 -30 -61 -11 -35 -8 -50 19 -137 25 -79
32 -121 36 -220 l5 -122 162 -468 c101 -293 170 -511 185 -583 33 -154 29
-146 80 -180 24 -17 50 -43 58 -58 15 -26 15 -26 16 -4 0 16 9 27 32 37 38 16
48 12 48 -18 0 -43 59 -125 147 -203 156 -141 149 -133 157 -199 8 -59 27
-103 53 -118 7 -4 13 -13 13 -19 0 -11 -61 -6 -110 8 -19 6 -8 -10 48 -73 54
-59 92 -91 145 -119 96 -52 275 -221 299 -283 25 -65 62 -115 154 -211 75 -78
84 -91 84 -125 0 -42 5 -42 -97 -4 -48 19 -65 21 -74 12 -22 -22 33 -87 113
-134 40 -23 89 -56 108 -74 29 -26 48 -34 110 -44 65 -10 90 -21 200 -88 181
-110 399 -256 443 -297 l39 -35 226 -11 c125 -6 236 -13 248 -15 29 -6 65 -44
140 -146 75 -102 123 -139 180 -139 22 0 89 9 149 20 145 27 192 25 374 -10
85 -17 156 -30 157 -30 7 0 23 -78 29 -140 4 -39 20 -98 42 -148 64 -152 74
-226 81 -602 l7 -335 29 -50 c86 -146 80 -115 92 -471 l12 -321 32 -64 c22
-44 58 -89 113 -142 l80 -79 14 -135 c12 -118 20 -152 67 -282 l54 -147 7
-679 c3 -374 11 -696 16 -715 5 -19 33 -63 63 -97 30 -34 56 -68 58 -74 2 -7
11 -10 19 -7 12 5 18 39 28 149 l13 144 53 65 52 65 7 268 c7 301 12 325 80
366 19 12 38 31 41 41 19 58 -4 150 -40 163 -13 6 -15 49 -15 341 0 385 -8
356 99 356 100 0 91 -37 91 381 0 364 0 369 -24 432 -25 68 -72 164 -90 186
-8 10 -11 160 -11 525 l0 511 -37 79 c-49 100 -49 138 -4 203 26 37 31 54 24
66 -10 19 -7 25 86 130 68 77 103 92 296 128 156 28 286 65 337 94 48 29 121
108 129 141 5 19 15 24 57 29 29 4 83 5 122 3 l69 -3 -67 -34 c-37 -19 -67
-37 -67 -42 0 -28 15 -39 54 -39 98 0 244 68 506 235 176 112 295 178 357 196
24 7 45 20 48 29 9 29 108 116 161 143 63 32 194 73 261 82 58 8 58 7 69 99 5
43 13 66 30 83 27 27 25 27 -39 8 -72 -21 -150 -66 -272 -156 -146 -107 -206
-136 -342 -165 -62 -13 -119 -24 -125 -24 -7 0 19 32 57 71 75 76 130 107 425
235 139 61 164 82 209 179 51 110 104 153 219 178 56 13 57 14 85 72 16 33 36
64 45 69 35 20 125 113 149 154 37 63 63 156 63 227 l0 63 93 40 c50 22 116
48 146 59 51 17 66 31 224 208 159 179 172 197 234 319 72 144 73 150 108 531
18 204 31 269 97 485 95 309 110 374 111 495 l2 110 -27 -2 -28 -2 0 92 c0 81
3 95 26 128 40 58 43 130 9 210 -27 61 -28 73 -35 299 -5 129 -9 236 -9 237
-1 1 -14 4 -31 8 -26 6 -30 11 -30 40 0 51 -26 173 -50 240 -15 40 -38 77 -72
111 l-49 51 -19 114 c-19 113 -20 117 -140 349 -67 129 -152 298 -189 375
-101 211 -175 316 -247 353 -23 12 -58 55 -113 139 -82 124 -178 238 -210 248
-13 4 -20 30 -34 131 -9 69 -23 138 -31 153 -21 40 -132 140 -201 182 -33 20
-115 67 -183 105 -67 38 -220 140 -340 226 -119 86 -260 182 -312 212 l-95 54
-314 51 c-361 59 -360 59 -531 196 -177 143 -202 156 -382 186 -139 23 -201
42 -244 74 -37 28 -42 51 -84 393 -27 212 -32 238 -54 261 -19 22 -22 31 -15
56 12 38 5 83 -31 215 -45 161 -46 175 -17 261 14 40 35 142 47 224 29 204 73
412 122 580 51 173 55 207 33 241 -19 30 -71 54 -115 54 -34 0 -28 -9 -95 154
-16 37 -39 81 -52 96 -22 27 -23 35 -23 188 0 196 12 263 86 481 31 91 65 195
75 230 30 105 41 250 29 405 -18 232 -32 274 -149 422 -63 79 -94 131 -129
214 l-10 25 -12 -30z m-1409 -5575 c-10 -30 -22 -63 -26 -73 -7 -17 -6 -17 31
-1 50 21 53 23 104 62 75 56 130 67 345 67 105 -1 225 -4 268 -9 l79 -8 -21
-22 c-14 -15 -23 -42 -27 -85 -6 -50 -12 -65 -31 -78 -30 -20 -30 -60 1 -155
13 -40 27 -99 30 -131 4 -32 18 -89 31 -128 22 -63 24 -91 30 -341 6 -247 9
-281 31 -353 33 -112 42 -195 22 -209 -8 -6 -42 -50 -76 -97 -34 -48 -82 -107
-107 -130 l-45 -44 0 -168 c0 -161 1 -169 25 -205 21 -32 25 -55 34 -176 l10
-140 33 -30 c153 -140 184 -344 102 -666 -20 -77 -30 -100 -54 -121 l-30 -26
2 -559 3 -559 56 -9 56 -9 6 -302 c7 -290 8 -305 32 -369 24 -63 25 -77 25
-269 0 -197 -1 -204 -29 -285 -16 -46 -42 -102 -57 -125 -28 -42 -28 -43 -40
-307 l-12 -265 -70 -200 -70 -200 -53 3 c-260 13 -766 223 -1089 451 -108 76
-218 182 -255 246 -22 37 -41 52 -107 86 -90 47 -133 92 -163 170 -19 48 -23
53 -66 64 -141 35 -317 233 -379 424 -18 58 -28 74 -66 102 -70 53 -133 149
-134 206 0 18 -10 25 -60 39 -33 9 -64 22 -70 29 -10 13 -40 128 -90 345 -27
116 -57 194 -124 319 -71 133 -96 194 -89 219 5 20 12 22 82 22 42 0 82 4 90
9 35 23 -33 268 -123 436 l-53 99 -57 12 c-31 6 -60 14 -64 18 -3 4 -5 94 -3
199 3 191 3 192 32 243 16 28 29 66 29 83 0 26 4 31 23 31 17 0 27 -12 45 -53
34 -79 52 -155 52 -220 0 -70 13 -97 44 -97 l23 0 -1 152 -1 153 30 5 c28 5
30 8 33 55 5 69 -12 147 -63 300 -50 150 -68 242 -58 311 5 40 24 76 105 196
85 126 105 149 143 168 24 12 76 51 115 87 68 63 71 67 68 107 l-3 41 -55 3
-55 3 5 62 5 61 50 -3 c27 -1 53 -5 56 -7 4 -2 10 -23 13 -46 4 -24 10 -49 15
-57 12 -19 41 -6 41 19 0 13 9 24 24 30 38 14 47 66 44 257 -2 126 0 176 11
201 l14 33 29 -53 c27 -52 88 -118 107 -118 22 0 26 141 6 205 -5 16 4 26 49
54 30 18 78 40 106 48 47 14 50 17 50 47 0 18 -11 54 -24 79 -13 26 -23 47
-22 48 0 1 53 6 116 13 l115 11 12 60 c7 33 11 74 8 91 -5 30 -4 31 54 47 58
16 101 51 101 83 0 24 14 16 65 -36 45 -46 53 -50 97 -50 l48 0 0 94 c0 132 5
149 48 172 21 10 105 88 189 172 136 137 159 156 220 181 37 15 69 25 71 21 1
-3 -6 -30 -17 -60z m2014 20 c28 -31 115 -43 314 -43 l184 1 47 -37 c26 -20
56 -41 66 -48 18 -11 17 -12 -6 -13 -14 0 -50 -9 -80 -20 -70 -24 -75 -44 -23
-101 47 -53 164 -110 289 -140 84 -21 92 -25 137 -75 53 -59 153 -125 267
-177 43 -20 90 -51 110 -72 42 -45 252 -224 333 -285 46 -34 66 -58 97 -119
84 -161 244 -340 399 -446 82 -56 84 -60 106 -233 8 -63 19 -130 25 -150 12
-45 55 -116 124 -202 83 -103 124 -169 137 -221 11 -41 17 -49 42 -55 l29 -6
-27 -28 c-35 -36 -109 -239 -94 -257 6 -6 35 -17 65 -24 l54 -12 0 -47 c0 -47
-1 -48 -44 -64 -69 -26 -80 -44 -73 -122 5 -62 8 -69 50 -113 52 -53 67 -80
67 -115 0 -31 -13 -39 -70 -46 -41 -5 -45 -7 -41 -30 1 -14 12 -43 24 -65 12
-25 20 -61 21 -95 1 -53 0 -55 -26 -58 l-28 -3 0 -144 0 -143 30 -25 c16 -14
55 -38 87 -54 l58 -28 -57 -3 -58 -3 0 -65 c0 -56 -3 -68 -26 -91 -25 -25 -26
-31 -34 -206 -9 -168 -11 -181 -31 -195 -20 -14 -21 -21 -16 -81 3 -36 24
-119 46 -184 l40 -117 -62 -31 c-108 -55 -137 -77 -137 -104 0 -13 -10 -50
-22 -82 -27 -74 -99 -146 -195 -196 -66 -34 -76 -44 -108 -101 -19 -35 -52
-117 -74 -182 -28 -86 -45 -123 -62 -137 -14 -10 -71 -26 -133 -37 l-109 -20
-84 -76 -84 -77 -128 -37 c-70 -20 -132 -40 -138 -43 -6 -4 -16 -29 -23 -56
l-12 -49 -133 -66 c-112 -55 -146 -77 -207 -136 -40 -38 -80 -70 -88 -70 -50
-1 -329 -142 -425 -216 -34 -26 -81 -45 -193 -78 -81 -23 -154 -46 -163 -50
-14 -6 -20 3 -33 41 -9 27 -17 71 -18 97 -2 44 1 51 29 73 l31 24 -5 252 c-4
232 -7 259 -30 337 -20 67 -27 119 -33 250 l-8 165 -52 135 c-28 74 -58 169
-66 210 -7 41 -18 195 -24 341 -12 290 -10 314 39 429 41 96 49 146 61 405 22
472 37 558 131 770 39 88 93 214 119 280 47 117 49 124 55 258 8 144 23 205
99 384 30 71 24 107 -19 123 -41 16 -116 11 -161 -9 l-42 -19 -5 182 c-4 132
-12 219 -31 321 -14 77 -26 165 -26 196 0 66 -7 74 -79 91 -40 9 -56 18 -66
38 -17 33 -80 90 -100 90 -13 0 -30 60 -61 218 -20 107 -18 123 21 174 32 41
41 46 86 50 27 3 52 8 56 11 9 10 -43 83 -77 108 -26 20 -30 29 -30 69 0 55
17 82 75 116 25 14 45 31 45 38 0 7 25 36 55 64 47 45 55 58 55 90 1 20 5 94
9 164 10 151 25 183 66 138z"/>
<path d="M640 6608 c0 -20 12 -33 47 -53 34 -20 67 -71 78 -122 5 -23 23 -45
63 -78 31 -24 59 -40 61 -34 7 22 -11 79 -38 116 -33 46 -211 190 -211 171z"/>
</g>
</svg>
